<?xml version="1.0" standalone="no"?>
<!DOCTYPE svg PUBLIC "-//W3C//DTD SVG 20010904//EN"
 "http://www.w3.org/TR/2001/REC-SVG-20010904/DTD/svg10.dtd">
<svg version="1.0" xmlns="http://www.w3.org/2000/svg"
 width="908.000000pt" height="908.000000pt" viewBox="0 0 908.000000 908.000000"
 preserveAspectRatio="xMidYMid meet">
<metadata>
Created by potrace 1.11, written by Peter Selinger 2001-2013
</metadata>
<g transform="translate(0.000000,908.000000) scale(0.100000,-0.100000)"
fill="#000000" stroke="none">
<path d="M2567 9074 c-1 -1 -38 -5 -82 -9 -100 -8 -154 -15 -225 -30 -14 -3
-38 -8 -55 -11 -97 -17 -282 -75 -382 -119 -28 -13 -54 -21 -57 -17 -3 3 -6 1
-6 -4 0 -6 -15 -15 -34 -22 -18 -7 -71 -35 -116 -62 -46 -28 -87 -50 -92 -50
-4 0 -8 -4 -8 -10 0 -5 -6 -10 -14 -10 -8 0 -16 -3 -18 -8 -1 -4 -28 -25 -58
-47 -30 -22 -57 -42 -60 -45 -3 -3 -25 -21 -50 -40 -46 -36 -260 -245 -260
-255 0 -3 -22 -33 -49 -65 -60 -71 -170 -238 -202 -303 -13 -26 -27 -47 -31
-47 -4 0 -8 -6 -8 -14 0 -8 -14 -42 -31 -76 -57 -116 -135 -339 -155 -444 -8
-43 -12 -61 -14 -61 -1 0 -3 -18 -6 -40 -2 -22 -6 -50 -9 -63 -25 -105 -23
-451 3 -570 5 -22 7 -43 5 -46 -3 -2 -1 -11 3 -18 5 -7 9 -19 11 -27 4 -26 25
-116 30 -131 3 -8 7 -19 8 -25 7 -29 77 -200 109 -264 58 -118 186 -320 208
-329 5 -2 8 -8 8 -12 0 -20 223 -251 314 -325 27 -22 54 -45 60 -50 6 -6 27
-22 46 -35 19 -13 38 -29 42 -35 4 -5 8 -6 8 -2 0 9 91 -51 102 -67 4 -6 8 -7
8 -3 0 5 12 0 28 -10 15 -11 54 -32 87 -49 33 -16 63 -33 67 -39 4 -5 8 -7 8
-4 0 4 39 -10 87 -31 49 -20 135 -52 193 -69 58 -18 119 -39 135 -46 17 -7 54
-19 83 -26 50 -12 52 -14 52 -46 0 -18 -4 -33 -9 -33 -5 0 -10 -47 -10 -106 0
-79 3 -106 14 -110 9 -4 12 -19 10 -47 -2 -23 -7 -211 -10 -417 -7 -393 -12
-581 -18 -665 -2 -27 0 -67 5 -88 16 -71 20 -150 23 -467 3 -301 9 -476 20
-530 2 -14 7 -47 10 -75 3 -27 9 -75 15 -105 11 -66 21 -128 25 -155 2 -11 4
-20 5 -20 1 0 4 -15 7 -34 3 -22 1 -31 -6 -26 -16 9 -14 -1 9 -46 11 -21 20
-54 19 -72 -1 -17 6 -59 15 -92 9 -32 16 -70 16 -82 0 -13 7 -35 16 -48 9 -13
17 -30 18 -37 2 -7 15 -38 29 -68 15 -30 27 -61 27 -67 0 -7 16 -42 35 -77 19
-36 35 -72 35 -81 0 -21 136 -282 167 -320 47 -58 138 -159 162 -179 85 -74
111 -99 111 -106 0 -4 22 -32 49 -61 27 -29 47 -58 44 -63 -3 -5 -2 -7 3 -4
11 7 35 -17 27 -26 -4 -3 1 -6 10 -6 8 0 19 -9 22 -20 3 -11 11 -20 16 -20 5
0 34 -24 64 -54 30 -29 57 -51 59 -49 3 3 11 -4 18 -16 7 -12 16 -21 20 -21 7
0 36 -21 63 -47 8 -7 18 -13 23 -13 5 0 15 -7 22 -15 7 -9 28 -23 46 -31 19
-9 34 -20 34 -25 0 -5 7 -9 15 -9 8 0 15 -4 15 -10 0 -5 5 -10 11 -10 6 0 24
-9 40 -21 16 -11 29 -17 29 -12 0 4 4 4 8 -2 9 -13 165 -91 175 -87 4 1 7 -2
7 -8 0 -6 3 -9 8 -9 4 1 10 0 15 -1 4 -1 10 -3 15 -5 7 -2 54 -20 82 -32 18
-8 12 -6 85 -27 33 -10 76 -24 96 -31 20 -8 39 -11 43 -8 3 3 12 1 19 -5 8 -7
16 -10 18 -7 3 2 22 0 44 -6 22 -5 56 -12 75 -14 19 -3 50 -7 69 -10 73 -11
181 -17 291 -17 106 0 154 4 250 17 82 11 100 14 117 19 10 3 29 7 43 10 14 2
45 9 70 16 25 7 52 14 60 15 8 2 49 15 90 30 41 14 80 27 85 29 6 2 33 13 60
26 28 12 56 23 63 23 6 0 12 4 12 9 0 5 5 6 10 3 6 -3 10 -2 10 3 0 9 34 23
44 19 2 -1 13 6 23 16 11 9 23 14 26 10 4 -3 7 -1 7 6 0 7 4 10 9 7 5 -4 11
-3 13 1 4 10 88 65 88 58 0 -3 9 3 20 13 12 9 23 16 25 15 3 -2 16 7 29 18 13
12 27 21 30 21 2 -1 22 15 42 33 21 19 39 33 41 31 4 -3 36 25 109 95 16 16
36 29 44 29 7 0 11 3 8 6 -6 6 34 52 42 48 3 -1 11 4 18 12 7 8 10 14 7 14 -3
0 19 25 49 55 29 30 51 55 47 55 -3 1 3 9 14 18 11 10 21 22 22 28 2 12 -285
13 -304 1 -7 -4 -38 -12 -70 -18 -63 -12 -188 -67 -242 -108 -19 -14 -32 -19
-27 -11 6 12 4 11 -6 -1 -19 -23 -95 -69 -102 -62 -3 4 -6 2 -6 -4 0 -10 -176
-96 -197 -96 -7 0 -13 -3 -13 -7 0 -5 -66 -30 -120 -45 -3 -1 -12 -5 -20 -8
-8 -4 -26 -9 -40 -11 -14 -3 -50 -12 -80 -20 -30 -8 -56 -13 -58 -11 -2 2 -16
-1 -30 -6 -15 -6 -47 -12 -72 -15 -25 -3 -76 -8 -115 -12 -105 -11 -402 -1
-427 14 -4 3 -22 7 -40 9 -52 6 -87 14 -180 40 -48 14 -91 25 -96 25 -5 0 -27
8 -48 17 -22 9 -43 18 -49 19 -5 1 -28 10 -50 20 -22 10 -42 18 -45 19 -27 6
-50 18 -50 27 0 6 -3 9 -6 5 -7 -7 -60 18 -88 42 -11 9 -16 10 -12 4 7 -13
-94 46 -105 60 -3 5 -9 7 -12 5 -4 -1 -15 5 -27 14 -11 10 -20 14 -20 10 0 -4
-4 -2 -8 3 -4 6 -14 15 -23 20 -55 34 -119 81 -119 87 0 5 -6 8 -13 8 -7 0
-41 26 -75 58 -34 32 -62 56 -62 53 0 -3 -29 25 -65 61 -36 37 -65 71 -65 77
0 14 -69 131 -95 161 -29 34 -84 121 -120 193 -16 32 -58 114 -92 180 -54 105
-127 307 -147 410 -3 12 -14 58 -25 102 -20 82 -23 94 -41 180 -12 59 -20 101
-25 135 -4 31 -15 96 -21 130 -2 14 -6 52 -10 85 -3 33 -7 71 -10 85 -19 122
-27 697 -10 735 5 11 11 49 12 85 1 36 2 73 3 83 1 10 14 31 30 47 16 16 31
35 33 42 5 11 161 71 193 74 6 0 19 4 30 8 47 18 192 58 254 71 9 2 61 13 117
24 99 21 140 29 199 36 17 2 62 9 100 15 244 38 747 46 985 15 19 -3 51 -7 70
-9 77 -10 136 -18 160 -22 14 -2 43 -7 65 -10 22 -2 51 -8 65 -11 14 -3 39 -7
55 -9 27 -3 77 -12 115 -21 8 -2 29 -6 45 -8 17 -3 39 -7 50 -9 11 -2 49 -10
85 -16 36 -7 72 -15 80 -18 8 -3 26 -7 40 -8 14 -2 36 -6 50 -10 14 -4 36 -8
50 -10 14 -2 36 -6 50 -10 14 -4 32 -8 40 -9 18 -3 57 -10 185 -36 55 -11 114
-22 130 -24 17 -3 41 -7 55 -10 14 -3 41 -8 60 -11 46 -7 81 -13 105 -18 11
-2 49 -7 85 -11 36 -4 76 -9 90 -11 28 -3 109 -13 160 -20 19 -2 91 -6 159 -9
78 -3 128 -9 132 -17 5 -8 22 -7 66 5 32 8 90 21 128 28 39 7 81 18 95 25 33
16 88 71 95 95 4 11 11 17 16 14 5 -4 9 3 9 13 0 11 15 33 34 50 19 17 32 33
29 36 -4 3 -2 6 4 6 5 0 24 13 43 30 18 16 42 33 53 36 11 3 32 19 47 34 16
16 31 26 35 22 4 -4 6 -2 4 3 -4 15 23 65 34 65 6 0 8 2 5 6 -3 3 0 24 6 47
18 64 9 194 -16 225 -6 6 -7 12 -2 12 5 0 4 4 -3 8 -6 4 -13 13 -15 21 -2 8
-21 30 -43 50 -22 20 -43 41 -47 46 -4 6 -8 6 -8 2 0 -4 -10 -2 -22 5 -54 29
-149 26 -224 -8 -21 -9 -42 -18 -46 -18 -17 -2 -115 -114 -132 -151 -13 -26
-20 -69 -23 -125 -2 -47 -6 -92 -10 -100 -3 -8 -7 -17 -8 -20 -8 -31 -18 -50
-26 -50 -6 0 -8 -4 -4 -9 3 -5 -4 -16 -15 -24 -11 -7 -18 -16 -17 -18 2 -2 -5
-12 -15 -22 -10 -9 -18 -15 -18 -13 0 3 -15 -9 -32 -25 -19 -17 -42 -28 -53
-27 -18 3 -20 12 -23 89 -3 90 15 227 42 319 9 30 16 76 16 102 0 40 -4 50
-25 64 -31 20 -63 13 -119 -26 -70 -48 -114 -103 -126 -154 -6 -26 -26 -78
-44 -115 -36 -70 -119 -171 -131 -159 -10 9 32 216 52 253 47 93 68 216 41
243 -17 17 -57 14 -103 -7 l-41 -18 -38 33 c-43 37 -100 51 -169 40 -83 -13
-123 -42 -238 -175 -138 -157 -239 -247 -239 -213 0 5 18 71 40 146 37 125 45
143 94 204 133 165 218 344 218 455 0 43 -4 55 -26 74 -51 43 -147 18 -202
-53 -51 -66 -69 -102 -142 -285 -61 -152 -80 -188 -135 -260 -71 -92 -173
-196 -182 -187 -12 12 48 216 86 294 67 139 62 209 -14 206 -20 -1 -50 -8 -66
-16 -28 -15 -30 -14 -70 24 -30 29 -52 40 -87 46 -132 19 -234 -37 -330 -182
-59 -89 -171 -197 -227 -219 -83 -31 -150 5 -164 89 l-5 32 62 1 c94 3 155 27
216 87 102 99 99 228 -6 283 -34 18 -59 23 -121 23 -66 0 -85 -4 -134 -30 -31
-16 -63 -30 -69 -30 -22 0 -43 -32 -76 -115 -37 -92 -91 -199 -121 -235 l-20
-25 6 75 c3 41 6 141 7 221 3 166 -5 189 -69 216 -57 23 -93 11 -155 -55 -30
-31 -63 -70 -74 -86 l-19 -30 -7 50 c-5 39 -14 56 -42 82 -75 68 -157 30 -231
-108 l-35 -65 6 60 c3 33 8 66 10 73 7 24 -32 98 -64 120 -40 29 -122 49 -250
62 -340 34 -434 62 -438 128 -1 15 -11 72 -23 127 -19 95 -36 188 -47 258 -3
18 -7 42 -9 54 -2 12 -6 34 -9 50 -4 15 -8 37 -10 48 -6 34 -16 89 -20 110
-17 90 -36 196 -40 227 -2 21 -7 42 -11 48 -3 5 -3 10 2 11 14 1 37 6 83 19
25 7 54 14 65 16 11 2 31 6 45 9 25 5 58 11 115 20 81 13 196 19 350 18 171
-1 729 -28 775 -37 14 -3 36 -8 50 -11 14 -3 39 -7 55 -9 75 -10 314 -73 410
-109 17 -7 33 -12 38 -13 4 -1 10 -3 15 -4 4 -1 10 -2 15 -1 4 0 7 -3 7 -8 0
-6 8 -9 18 -9 16 1 300 -110 347 -135 11 -6 25 -12 31 -13 6 -1 35 -13 66 -28
30 -14 57 -26 60 -26 3 0 41 -17 84 -37 43 -20 81 -38 84 -38 3 -1 31 -13 64
-28 32 -15 62 -27 67 -27 5 0 9 -5 9 -12 0 -6 3 -9 6 -5 5 5 30 -5 184 -75 98
-44 144 -63 151 -61 4 1 13 -4 19 -12 7 -8 20 -15 29 -15 9 0 22 -5 29 -12 7
-7 12 -9 12 -5 0 3 33 -8 73 -25 96 -41 288 -110 310 -111 9 -1 17 -4 17 -7 0
-4 7 -7 15 -8 8 -1 22 -3 30 -4 8 -1 15 -4 15 -8 0 -3 8 -6 18 -7 9 0 44 -8
77 -18 33 -9 67 -18 75 -20 8 -2 47 -11 85 -20 39 -9 81 -18 95 -20 14 -2 43
-6 65 -9 163 -24 237 -30 380 -30 91 0 272 11 284 18 3 2 31 7 61 10 71 8 273
62 326 86 23 10 54 22 69 26 70 17 318 173 376 237 9 9 21 17 27 17 6 0 12 4
14 9 2 5 28 36 58 69 113 123 186 237 264 412 26 60 75 221 82 275 3 17 7 48
11 70 8 55 7 309 -1 370 -17 116 -61 257 -119 375 -39 80 -147 253 -172 275
-7 6 -46 47 -88 92 -42 45 -77 79 -77 77 0 -3 -12 6 -27 20 -40 37 -83 70
-120 91 -18 11 -33 23 -33 27 0 4 -8 8 -18 8 -10 0 -28 9 -40 20 -12 12 -22
17 -22 13 0 -4 -4 -3 -8 2 -4 6 -20 15 -37 22 -16 6 -69 27 -116 47 -47 19
-99 37 -115 40 -16 2 -29 5 -29 6 0 3 -38 10 -78 15 -21 2 -41 6 -45 9 -13 7
-174 20 -262 20 -82 0 -224 -10 -265 -18 -11 -2 -42 -7 -70 -10 -27 -4 -57 -9
-65 -11 -8 -3 -31 -7 -50 -9 -49 -6 -199 -43 -295 -73 -159 -48 -240 -76 -249
-83 -5 -5 -14 -7 -20 -5 -17 7 -66 -65 -66 -97 0 -16 7 -40 16 -53 13 -20 20
-22 40 -15 13 5 24 7 24 4 0 -3 15 3 33 15 18 11 48 23 66 26 19 3 37 8 41 10
6 4 44 12 105 21 41 7 234 7 265 0 14 -3 34 -8 45 -10 129 -27 207 -60 302
-124 163 -111 197 -280 78 -395 -37 -36 -102 -75 -133 -80 -9 -1 -21 -5 -27
-8 -25 -14 -230 4 -251 22 -6 5 -16 9 -20 8 -5 -1 -11 -1 -14 1 -3 1 -15 3
-27 6 -39 7 -189 72 -310 135 -113 59 -340 201 -355 223 -5 7 -8 7 -8 1 0 -6
-3 -6 -8 1 -6 10 -96 80 -146 114 -30 20 -150 113 -156 120 -4 4 -134 109
-324 260 -10 8 -29 25 -42 38 -13 12 -28 22 -34 22 -6 0 -13 7 -16 15 -4 8
-11 15 -16 15 -5 0 -31 17 -56 38 -26 20 -51 40 -57 44 -5 4 -23 18 -40 31
-16 12 -41 30 -55 40 -14 9 -47 33 -75 52 -45 32 -156 107 -300 201 -27 18
-62 38 -77 45 -16 7 -28 16 -28 21 0 4 -4 8 -10 8 -12 0 -213 112 -221 123 -3
5 -8 8 -10 7 -2 -2 -44 17 -94 40 -123 58 -233 108 -255 115 -3 1 -18 7 -33
13 -15 7 -39 15 -53 18 -13 3 -27 10 -30 15 -3 5 -10 7 -15 4 -5 -4 -9 -1 -9
5 0 6 -6 10 -12 8 -7 -1 -49 10 -93 24 -94 31 -287 85 -330 92 -16 3 -41 7
-55 10 -14 3 -43 8 -65 11 -22 4 -49 8 -60 10 -137 22 -204 27 -408 29 -93 0
-169 0 -170 0z m473 -418 c14 -3 49 -8 77 -10 29 -3 56 -7 60 -9 5 -3 35 -8
68 -12 32 -3 62 -8 65 -10 6 -4 46 -13 80 -19 8 -1 23 -6 33 -10 10 -5 31 -9
47 -10 17 0 30 -3 30 -6 0 -3 8 -6 18 -7 20 -2 226 -68 257 -82 11 -6 52 -22
90 -37 39 -15 93 -37 120 -50 28 -13 53 -23 58 -23 13 -1 112 -55 119 -65 4
-6 8 -8 8 -4 0 8 173 -81 181 -94 3 -5 10 -9 15 -9 10 2 229 -126 334 -194
276 -178 504 -334 508 -345 2 -6 8 -10 14 -10 6 0 33 -16 59 -35 27 -19 53
-35 58 -35 5 0 11 -7 15 -15 3 -8 10 -15 16 -15 12 0 80 -48 92 -65 4 -5 8 -6
8 -2 0 9 73 -43 78 -55 2 -5 8 -8 13 -8 6 0 45 -24 87 -52 43 -29 86 -58 97
-65 253 -155 535 -312 535 -297 0 3 6 2 13 -3 6 -4 14 -8 17 -9 3 0 19 -7 35
-14 17 -7 33 -14 38 -15 4 -2 9 -4 12 -5 3 -1 10 -4 15 -5 6 -1 12 -3 15 -4 3
0 7 -1 10 -1 3 -1 24 -8 47 -16 42 -15 92 -27 166 -41 47 -10 256 -10 302 -1
71 14 83 18 154 53 66 33 162 112 193 161 45 70 75 155 76 219 4 171 -151 359
-383 465 -30 14 -58 29 -62 35 -4 5 -8 6 -8 2 0 -5 -6 -5 -12 0 -7 4 -16 8
-20 8 -3 0 -9 3 -13 7 -9 8 284 3 340 -7 106 -17 325 -90 365 -121 8 -6 41
-24 73 -39 31 -15 57 -31 57 -36 0 -5 6 -9 13 -9 7 0 22 -8 33 -17 10 -10 35
-30 54 -44 200 -150 361 -424 396 -676 12 -89 11 -274 -3 -346 -26 -146 -109
-361 -159 -418 -8 -8 -14 -19 -14 -23 0 -27 -149 -183 -235 -246 -64 -47 -232
-133 -244 -125 -5 3 -11 1 -13 -4 -1 -6 -16 -13 -33 -16 -40 -8 -60 -13 -60
-15 0 -2 -30 -9 -60 -15 -11 -2 -31 -6 -44 -9 -136 -30 -450 -26 -631 8 -14 2
-38 7 -55 10 -16 3 -40 7 -51 10 -12 2 -39 7 -60 10 -21 4 -66 14 -99 22 -33
9 -67 17 -75 19 -8 2 -78 22 -155 45 -77 23 -146 42 -152 42 -7 1 -13 5 -13
10 0 4 -3 7 -7 6 -5 -1 -28 5 -53 12 -25 7 -50 14 -56 16 -6 1 -62 21 -125 44
-63 23 -119 43 -126 44 -7 1 -16 5 -19 9 -4 4 -17 7 -28 7 -12 0 -30 6 -41 14
-11 7 -35 17 -54 21 -19 4 -50 14 -70 23 -20 9 -39 17 -43 18 -5 1 -9 2 -10 4
-2 1 -10 3 -18 5 -8 2 -78 26 -155 55 -77 28 -151 53 -164 56 -13 3 -32 9 -43
15 -10 5 -18 7 -18 3 0 -3 -11 1 -24 9 -13 9 -35 18 -48 21 -13 2 -93 25 -178
50 -85 25 -164 48 -175 51 -17 4 -50 12 -130 32 -11 2 -29 6 -40 9 -11 2 -39
8 -62 13 -24 4 -43 6 -43 3 0 -2 -6 0 -12 6 -14 11 -102 30 -158 34 -19 1 -39
5 -45 9 -29 20 -162 39 -345 48 -254 14 -510 14 -510 2 0 -6 -8 -10 -17 -9
-10 0 -61 -4 -113 -8 -197 -17 -518 -9 -580 14 -14 5 -28 10 -33 10 -22 1 -74
16 -106 30 -20 9 -38 17 -41 17 -39 13 -70 29 -70 36 0 5 -5 9 -11 9 -26 0
-182 124 -172 137 1 1 -11 16 -28 34 -16 17 -29 35 -29 40 0 20 -67 89 -112
116 -93 57 -251 63 -336 12 -18 -10 -30 -13 -26 -7 4 7 -17 -12 -47 -43 -62
-64 -82 -89 -74 -89 3 0 -1 -15 -8 -32 -23 -55 -7 -196 25 -235 6 -7 8 -13 5
-13 -3 0 5 -12 18 -26 14 -15 22 -31 18 -37 -3 -6 -1 -7 5 -3 7 4 12 1 12 -8
0 -9 6 -15 13 -14 6 2 10 -4 9 -12 -2 -8 0 -12 3 -8 4 4 22 -4 40 -17 17 -14
37 -25 43 -25 7 0 12 -5 12 -12 0 -6 3 -8 6 -5 4 3 15 2 26 -4 20 -11 52 -12
163 -8 70 2 122 -20 171 -73 43 -46 75 -94 67 -102 -3 -3 -2 -6 4 -6 16 0 72
-161 87 -250 2 -14 7 -36 10 -50 21 -91 50 -319 61 -482 5 -71 4 -78 -13 -78
-10 0 -22 3 -26 7 -3 4 -16 8 -27 10 -11 2 -34 11 -52 20 -18 9 -38 18 -45 19
-46 8 -256 133 -377 224 -133 101 -224 192 -359 361 -140 174 -284 509 -310
719 -3 25 -8 68 -12 95 -16 139 -2 381 32 520 8 33 16 69 18 80 25 116 129
355 217 498 139 224 323 413 536 550 71 47 243 137 266 141 7 1 17 4 22 7 10
6 79 30 100 35 6 2 41 12 79 23 38 11 88 23 110 26 23 3 50 9 61 12 11 4 29 7
40 8 90 9 171 18 173 20 6 6 335 -3 362 -9z m-1250 -1922 c22 -9 40 -20 40
-25 0 -5 6 -9 13 -9 15 0 97 -83 97 -99 0 -6 4 -11 8 -11 9 0 42 -65 48 -93 3
-17 -2 -18 -55 -14 -74 7 -111 17 -111 29 0 5 -4 7 -9 4 -16 -10 -105 58 -128
99 -23 41 -31 105 -13 105 6 0 9 3 9 8 -1 4 -1 10 0 15 2 13 59 8 101 -9z
m1166 -1840 l141 -7 11 -43 c19 -71 16 -414 -4 -475 -9 -27 -19 -49 -23 -50
-3 0 -13 -2 -21 -4 -8 -2 -26 -5 -40 -8 -14 -3 -46 -12 -72 -20 -27 -8 -48
-14 -48 -12 0 2 -39 -12 -87 -31 -49 -19 -102 -34 -119 -34 l-31 0 -7 98 c-12
151 -13 184 -4 227 4 22 8 116 8 209 l0 169 77 -7 c43 -3 141 -9 219 -12z
m1451 -79 c9 -24 -25 -102 -54 -125 -28 -22 -100 -47 -109 -38 -10 11 39 101
76 139 38 40 76 51 87 24z m-627 -214 l0 -219 -64 1 -63 1 -7 74 c-3 41 -6
103 -6 138 0 56 4 67 36 111 35 46 95 113 101 113 2 0 3 -98 3 -219z m-324 39
c-3 -30 -6 -103 -7 -161 l-1 -106 -42 -1 c-22 -1 -51 -4 -63 -6 -22 -5 -23 -3
-23 83 0 103 11 138 77 253 l47 83 9 -45 c4 -25 6 -70 3 -100z m1514 25 c33
-34 33 -35 21 -77 -23 -77 -186 -283 -215 -272 -37 14 -48 131 -20 225 12 41
28 66 70 107 66 64 95 68 144 17z m1046 -258 c33 -30 35 -36 29 -70 -14 -73
-165 -287 -203 -287 -26 0 -45 70 -40 150 5 92 42 168 102 212 50 36 68 35
112 -5z m-1952 -9 c9 -17 16 -33 16 -35 0 -5 -72 6 -77 11 -3 3 36 56 42 56 2
0 11 -14 19 -32z m498 -61 l3 -53 -55 11 c-30 6 -54 14 -53 18 3 9 85 75 95
76 3 1 8 -23 10 -52z m2573 -84 c-3 -31 -10 -62 -15 -68 -5 -7 -8 -14 -5 -17
12 -11 -65 -116 -115 -156 -54 -44 -54 -45 -61 -21 -13 50 -3 163 19 206 29
56 99 107 154 111 l29 2 -6 -57z m-1893 -62 l-15 -68 -36 10 c-20 6 -38 12
-40 14 -4 3 99 113 104 113 1 0 -5 -31 -13 -69z m-352 34 c0 -8 -4 -15 -10
-15 -5 0 -7 7 -4 15 4 8 8 15 10 15 2 0 4 -7 4 -15z m743 -202 c8 -13 8 -13
-91 13 l-64 17 34 26 c18 14 49 41 68 61 l35 35 5 -70 c3 -38 9 -75 13 -82z
m719 -72 l-3 -103 -77 6 c-42 4 -83 7 -90 8 -7 1 12 23 41 49 30 26 71 71 92
98 22 28 39 50 39 48 1 -1 0 -49 -2 -106z m-394 -27 c-2 -2 -14 -1 -26 3 l-23
6 23 24 23 25 3 -27 c2 -15 2 -28 0 -31z"/>
</g>
</svg>
