<?xml version="1.0" standalone="no"?>
<!DOCTYPE svg PUBLIC "-//W3C//DTD SVG 20010904//EN"
 "http://www.w3.org/TR/2001/REC-SVG-20010904/DTD/svg10.dtd">
<svg version="1.0" xmlns="http://www.w3.org/2000/svg"
 width="1004.000000pt" height="1004.000000pt" viewBox="0 0 1004.000000 1004.000000"
 preserveAspectRatio="xMidYMid meet">
<metadata>
Created by potrace 1.11, written by Peter Selinger 2001-2013
</metadata>
<g transform="translate(0.000000,1004.000000) scale(0.100000,-0.100000)"
fill="#000000" stroke="none">
<path d="M1997 10024 c-557 -81 -1059 -399 -1376 -873 -151 -226 -245 -457
-303 -744 l-23 -112 0 -3275 0 -3275 23 -112 c83 -411 252 -737 532 -1027 292
-302 642 -491 1073 -578 l112 -23 2980 0 2980 0 112 23 c431 87 781 276 1073
578 280 290 449 616 532 1027 l23 112 0 3275 0 3275 -23 112 c-87 431 -276
781 -578 1073 -254 245 -552 413 -885 499 -252 65 -46 61 -3247 60 -2447 -1
-2922 -3 -3005 -15z m1418 -474 c42 0 265 -29 285 -37 8 -3 19 -5 23 -4 41 8
577 -147 585 -170 2 -5 8 -7 13 -3 5 3 9 0 9 -6 0 -6 4 -9 9 -5 11 6 305 -121
325 -141 8 -7 16 -10 20 -7 3 4 6 0 6 -7 0 -7 3 -11 6 -7 17 17 624 -346 624
-374 0 -5 4 -8 8 -7 14 5 354 -247 526 -389 10 -8 91 -74 180 -145 89 -72 165
-137 169 -144 5 -8 12 -12 16 -10 4 3 19 -5 33 -17 14 -12 52 -40 83 -62 32
-22 68 -50 81 -62 13 -12 24 -20 24 -17 0 3 15 -6 33 -19 17 -14 75 -51 127
-82 52 -32 97 -61 98 -66 2 -5 8 -7 13 -3 5 3 9 0 9 -7 0 -7 3 -9 7 -6 3 4 31
-7 61 -24 72 -40 257 -114 352 -140 95 -26 217 -28 287 -5 31 10 73 36 103 63
80 72 110 147 90 225 -12 47 -84 160 -111 174 -9 5 -43 25 -75 45 -33 19 -79
43 -104 53 -25 10 -56 23 -70 28 -14 6 -34 12 -45 14 -11 1 -41 7 -68 13 -60
14 -254 13 -332 -1 -33 -6 -69 -12 -80 -14 -11 -1 -21 -3 -22 -3 -2 -1 -6 -1
-9 0 -4 0 -10 -3 -13 -8 -11 -15 -112 -52 -127 -46 -7 3 -11 9 -8 14 3 5 0 9
-6 9 -6 0 -10 16 -8 38 2 41 39 88 73 94 11 2 22 6 25 10 20 25 568 167 591
152 6 -3 15 -1 22 4 21 17 399 53 420 40 6 -4 37 -8 67 -8 30 -1 78 -5 105
-11 28 -5 59 -11 70 -13 11 -2 20 -4 20 -5 0 -1 16 -4 35 -6 91 -10 373 -128
422 -177 10 -10 18 -15 18 -12 0 3 21 -10 47 -28 88 -62 345 -328 317 -328 -4
0 1 -7 12 -15 10 -8 16 -15 12 -15 -5 0 0 -8 10 -18 54 -54 155 -299 188 -452
16 -77 25 -325 15 -410 -10 -80 -36 -200 -43 -200 -5 0 -7 -4 -4 -9 15 -24
-131 -361 -156 -361 -5 0 -7 -4 -4 -8 13 -21 -244 -319 -265 -306 -4 2 -13 -4
-19 -15 -20 -38 -288 -200 -304 -184 -3 4 -6 1 -6 -6 0 -7 -4 -9 -10 -6 -5 3
-10 2 -10 -3 0 -5 -8 -12 -17 -15 -10 -3 -57 -19 -105 -36 -354 -122 -802
-127 -1256 -15 -218 54 -705 227 -724 257 -4 7 -8 9 -8 5 0 -9 -84 26 -325
135 -307 138 -466 207 -476 207 -5 0 -9 5 -9 11 0 5 -4 7 -10 4 -5 -3 -10 -2
-10 3 0 5 -6 9 -12 9 -10 0 -317 114 -378 140 -8 3 -18 7 -22 8 -5 2 -11 4
-15 5 -5 1 -11 2 -15 1 -5 0 -8 4 -8 10 0 5 -4 8 -9 5 -4 -3 -48 6 -97 20
-116 34 -313 76 -324 69 -5 -3 -11 -1 -14 3 -3 5 -26 8 -51 7 -25 -1 -45 3
-45 8 0 5 -14 6 -30 2 -19 -4 -36 -2 -45 5 -11 9 -15 9 -15 1 0 -14 -329 -3
-348 12 -6 5 -30 7 -51 3 -23 -3 -42 -2 -46 4 -3 5 -15 10 -26 10 -13 0 -18
-4 -13 -11 5 -8 -3 -10 -27 -6 -44 8 -265 8 -349 1 -36 -4 -78 -8 -95 -9 -16
-2 -37 -5 -45 -8 -15 -5 -127 -27 -165 -32 -11 -2 -33 -8 -48 -14 -16 -6 -33
-9 -38 -5 -21 12 -18 -31 10 -192 17 -93 33 -185 36 -204 3 -19 14 -80 25
-135 11 -55 19 -104 18 -110 0 -5 1 -17 5 -25 6 -16 27 -126 33 -175 2 -16 7
-43 10 -60 5 -26 11 -63 13 -87 1 -5 7 -8 14 -8 8 0 27 -6 43 -14 44 -22 175
-46 304 -57 189 -15 281 -35 334 -72 30 -21 69 -96 62 -119 -2 -7 -7 -40 -10
-73 l-6 -60 35 65 c74 138 156 176 231 108 28 -26 37 -43 42 -82 l7 -50 19 30
c11 16 44 55 74 86 62 66 98 78 155 55 64 -27 72 -50 69 -216 -1 -80 -4 -180
-7 -221 l-6 -75 20 25 c30 36 84 143 121 235 33 83 54 115 76 115 6 0 38 14
69 30 49 26 68 30 134 30 62 0 87 -5 121 -23 105 -55 108 -184 6 -283 -61 -60
-122 -84 -216 -87 l-62 -1 5 -32 c8 -50 35 -83 78 -95 32 -10 46 -9 86 6 56
22 168 130 227 219 96 145 198 201 330 182 35 -6 57 -17 87 -46 40 -38 42 -39
70 -24 16 8 46 15 66 16 76 3 81 -67 14 -206 -38 -78 -98 -282 -86 -294 9 -9
111 95 182 187 55 72 74 108 135 260 73 183 91 219 142 285 55 71 151 96 202
53 22 -19 26 -31 26 -74 0 -111 -85 -290 -218 -455 -49 -61 -57 -79 -94 -204
-22 -75 -40 -141 -40 -146 0 -34 101 56 239 213 115 133 155 162 238 175 69
11 126 -3 169 -40 l38 -33 41 18 c46 21 86 24 103 7 27 -27 6 -150 -41 -243
-20 -37 -62 -244 -52 -253 12 -12 95 89 131 159 18 37 38 89 44 115 12 51 56
106 126 154 56 39 88 46 119 26 21 -14 25 -24 25 -64 0 -26 -7 -72 -16 -102
-28 -97 -44 -222 -42 -327 1 -57 4 -103 7 -103 4 0 23 11 44 25 20 14 37 24
37 22 0 -3 18 14 41 36 64 64 92 128 96 222 3 44 7 87 10 95 3 8 8 24 10 35 7
40 108 160 125 149 4 -3 8 -1 8 4 0 21 105 53 175 54 29 0 87 -12 107 -23 26
-14 105 -89 94 -89 -4 0 0 -7 8 -16 9 -8 14 -20 11 -25 -4 -5 -2 -9 3 -9 12 0
32 -78 32 -124 0 -53 -20 -134 -37 -151 -8 -8 -11 -15 -6 -15 4 0 1 -6 -8 -13
-9 -7 -16 -16 -15 -22 0 -5 -30 -31 -67 -56 -74 -51 -157 -124 -157 -139 0 -5
-8 -13 -17 -19 -10 -5 -17 -13 -17 -18 2 -15 -19 -53 -29 -53 -6 0 -7 -3 -4
-6 8 -9 -61 -63 -87 -69 -12 -2 -57 -12 -101 -20 -44 -9 -95 -20 -113 -26 -27
-9 -36 -8 -45 4 -9 11 -46 16 -152 21 -77 4 -189 13 -250 21 -60 8 -123 15
-138 15 -16 0 -33 2 -39 6 -5 4 -29 8 -52 10 -51 4 -425 72 -446 81 -8 3 -18
6 -22 5 -9 -2 -259 47 -278 55 -8 3 -28 7 -45 9 -31 5 -317 58 -395 75 -25 5
-70 11 -100 14 -30 3 -64 8 -75 12 -11 3 -33 7 -50 9 -16 1 -100 9 -186 18
-182 18 -573 21 -734 6 -246 -23 -236 -22 -395 -50 -136 -24 -410 -91 -494
-120 -32 -11 -62 -17 -66 -15 -5 3 -11 1 -15 -5 -4 -6 -11 -8 -16 -5 -5 4 -9
1 -9 -5 0 -6 -6 -10 -12 -9 -7 1 -30 -5 -50 -14 -21 -10 -42 -17 -49 -17 -6 0
-9 -7 -6 -15 4 -8 -6 -27 -23 -44 -17 -16 -30 -38 -31 -48 -1 -10 -2 -48 -3
-85 0 -36 -4 -70 -8 -74 -5 -4 -9 -1 -9 7 -1 8 -5 -6 -9 -31 -7 -47 -4 -506 5
-600 2 -30 7 -82 10 -115 11 -114 15 -141 46 -315 17 -96 32 -184 34 -195 1
-11 5 -27 8 -35 16 -42 65 -255 61 -262 -3 -4 -1 -8 4 -8 8 0 22 -45 23 -77 1
-5 4 -12 9 -18 4 -5 13 -27 20 -49 7 -21 43 -97 81 -170 38 -72 81 -156 96
-186 30 -62 86 -152 118 -190 30 -35 91 -141 98 -172 6 -24 107 -137 107 -120
0 4 15 -7 33 -25 49 -49 69 -66 115 -97 23 -16 42 -33 42 -37 0 -5 7 -9 15 -9
7 0 18 -8 24 -17 5 -10 12 -17 15 -15 4 1 31 -13 61 -33 181 -115 375 -205
569 -262 67 -19 128 -37 136 -40 8 -3 32 -7 53 -9 21 -2 47 -8 56 -14 10 -5
20 -7 23 -5 2 3 42 0 89 -6 186 -25 439 -6 649 47 58 15 111 27 118 27 6 0 12
5 12 10 0 5 7 7 15 3 8 -3 15 -1 15 5 0 6 7 9 15 5 8 -3 15 -2 15 2 0 5 17 14
38 21 20 8 71 30 112 49 41 19 78 34 83 34 4 -1 7 3 7 9 0 5 5 7 10 4 6 -3 10
-2 10 4 0 5 10 13 23 17 12 4 24 10 27 14 11 14 133 92 197 125 37 19 88 37
113 41 25 4 56 11 70 17 14 5 91 11 173 12 134 2 146 0 133 -14 -8 -9 -31 -33
-50 -53 -19 -21 -32 -38 -28 -38 3 0 -29 -36 -73 -80 -43 -44 -81 -78 -83 -75
-2 2 -17 -12 -34 -31 -17 -19 -36 -34 -44 -34 -7 0 -18 -9 -24 -20 -6 -11 -17
-20 -25 -20 -8 0 -15 -5 -15 -10 0 -6 -8 -14 -17 -17 -9 -4 -24 -14 -33 -23
-51 -51 -412 -246 -432 -234 -4 3 -8 1 -8 -4 0 -7 -109 -51 -141 -56 -8 -1
-19 -4 -24 -8 -13 -8 -130 -38 -166 -43 -16 -2 -32 -6 -37 -9 -4 -2 -28 -8
-52 -11 -175 -26 -321 -37 -405 -30 -44 3 -102 8 -130 10 -93 7 -145 14 -202
25 -87 17 -209 49 -240 62 -16 6 -35 12 -43 14 -34 7 -160 57 -160 63 0 4 -6
8 -14 8 -22 0 -76 25 -76 35 0 5 -4 7 -9 3 -5 -3 -16 1 -24 9 -8 8 -17 12 -21
9 -3 -4 -6 0 -6 7 0 7 -3 10 -6 7 -12 -11 -294 166 -294 184 0 5 -7 9 -15 9
-8 0 -20 9 -27 20 -7 11 -17 20 -23 20 -5 0 -23 13 -40 29 -16 16 -63 59 -102
97 -40 37 -73 71 -73 76 0 5 -13 21 -28 36 -16 15 -50 53 -77 85 -27 32 -66
67 -87 78 -21 11 -38 23 -38 27 0 4 -24 33 -52 63 -29 31 -67 74 -85 97 -37
46 -173 303 -173 327 0 8 -13 39 -28 69 -16 29 -32 69 -35 90 -3 20 -26 78
-50 129 -47 97 -80 210 -78 264 1 18 -8 51 -19 73 -18 35 -19 40 -4 40 12 0
15 6 10 23 -12 43 -55 313 -61 382 -4 39 -9 97 -12 130 -3 33 -7 202 -9 375
-3 317 -6 370 -26 470 -13 64 -17 161 -8 155 8 -5 18 298 26 745 3 151 6 289
8 305 3 38 -3 55 -20 55 -10 0 -13 24 -13 105 0 84 3 105 15 105 10 0 14 12
14 41 0 26 -4 38 -11 34 -5 -4 -39 1 -75 11 -36 9 -60 20 -55 23 5 4 -52 25
-129 48 -146 45 -323 116 -328 133 -2 6 -8 8 -13 4 -5 -3 -9 0 -9 7 0 7 -3 9
-7 6 -12 -12 -273 145 -273 164 0 5 -3 8 -7 7 -17 -3 -43 15 -43 30 0 8 -3 13
-6 9 -17 -17 -351 303 -339 323 3 4 -7 15 -20 24 -14 9 -23 21 -20 26 4 6 2
10 -4 10 -18 0 -168 233 -163 253 1 4 -3 7 -9 7 -5 0 -7 5 -4 10 3 6 1 10 -5
10 -6 0 -8 5 -5 10 3 6 2 10 -3 10 -22 0 -149 338 -138 367 3 7 1 13 -3 13
-10 0 -37 140 -48 250 -10 92 -10 273 -1 360 4 36 8 72 9 80 5 61 23 157 30
166 5 6 7 13 4 16 -18 18 143 468 167 468 5 0 6 5 3 10 -3 6 -1 10 5 10 6 0 9
4 6 8 -8 13 95 189 172 296 95 134 203 257 302 345 96 86 210 176 210 165 0
-4 11 4 24 17 29 29 184 122 203 122 7 0 13 4 13 9 0 5 5 6 10 3 6 -3 10 -1
10 5 0 6 5 8 10 5 6 -3 10 -2 10 3 0 23 333 143 434 157 12 1 29 6 39 10 10 4
21 5 24 1 3 -3 11 -2 17 3 6 5 63 16 126 24 140 19 107 17 329 23 102 2 187 7
190 10 3 3 7 0 9 -5 2 -6 19 -11 37 -11z"/>
<path d="M3280 9163 c0 -5 -62 -9 -137 -10 -75 -1 -139 -6 -142 -10 -3 -4 -19
-8 -36 -9 -61 -1 -135 -17 -128 -27 3 -5 1 -7 -4 -4 -14 9 -74 -3 -68 -13 3
-5 -4 -6 -15 -3 -11 3 -27 0 -35 -7 -8 -7 -15 -9 -15 -5 0 4 -7 2 -15 -5 -8
-7 -15 -10 -15 -7 0 3 -17 -1 -37 -10 -21 -8 -49 -20 -63 -26 -14 -6 -27 -11
-30 -12 -53 -20 -70 -29 -70 -36 0 -5 -3 -8 -7 -7 -16 5 -72 -25 -66 -35 3 -5
2 -7 -4 -4 -11 7 -117 -56 -108 -64 3 -3 -1 -6 -8 -6 -17 0 -67 -33 -67 -44 0
-5 -6 -9 -14 -9 -8 0 -48 -33 -90 -72 -42 -40 -76 -72 -76 -71 0 3 -61 -64
-110 -119 -18 -20 -33 -39 -34 -44 0 -4 -16 -23 -33 -42 -18 -20 -33 -42 -33
-49 0 -7 -4 -13 -8 -13 -5 0 -15 -12 -23 -27 -8 -16 -17 -30 -20 -33 -4 -3
-18 -26 -32 -52 -14 -26 -28 -44 -33 -40 -4 4 -4 2 -1 -4 3 -6 -14 -50 -38
-99 -24 -48 -42 -92 -39 -96 3 -5 1 -9 -4 -9 -10 0 -59 -151 -88 -270 -10 -41
-21 -80 -25 -85 -4 -6 -4 -17 1 -25 5 -9 4 -20 -3 -28 -13 -16 -23 -397 -10
-389 4 3 8 -10 8 -28 0 -18 -3 -31 -7 -28 -5 2 -8 0 -8 -6 0 -5 5 -13 11 -16
5 -4 9 -17 7 -28 -1 -12 1 -27 5 -34 4 -6 12 -37 18 -69 6 -31 15 -68 20 -83
6 -14 10 -27 10 -28 0 -4 28 -86 38 -108 4 -11 21 -49 37 -84 16 -36 28 -68
26 -73 -1 -4 3 -8 8 -8 6 0 15 -12 21 -27 16 -42 137 -223 154 -229 8 -4 13
-10 10 -14 -9 -14 213 -238 305 -308 47 -36 90 -71 96 -79 6 -7 13 -10 16 -8
3 3 16 -5 29 -17 14 -13 27 -23 29 -23 3 -1 43 -21 90 -47 47 -25 95 -49 107
-52 13 -4 23 -12 23 -17 0 -5 3 -8 8 -7 10 3 112 -35 112 -42 0 -3 8 -6 18 -7
9 -1 27 -4 40 -8 21 -7 22 -6 12 21 -6 15 -10 48 -9 73 0 25 -3 87 -9 136 -6
50 -10 97 -11 105 -1 29 -31 206 -52 302 -11 53 -22 102 -23 110 -1 7 -19 48
-39 91 -20 43 -35 80 -34 83 1 3 -6 10 -15 15 -10 6 -18 14 -18 20 0 16 -62
67 -109 91 -44 21 -90 25 -158 12 -42 -8 -128 18 -187 57 -48 32 -119 117
-110 131 3 5 0 8 -6 8 -6 0 -8 5 -5 10 3 6 2 10 -3 10 -10 0 -30 73 -34 125
-2 35 29 135 43 135 5 0 9 6 9 13 0 14 61 74 69 68 2 -1 8 4 13 12 22 41 217
67 288 40 8 -4 17 -7 20 -8 31 -8 50 -18 50 -26 0 -6 5 -7 10 -4 6 3 10 1 10
-5 0 -6 11 -15 25 -20 14 -5 29 -18 32 -27 4 -10 14 -26 23 -36 9 -9 23 -29
31 -44 8 -14 26 -39 42 -56 15 -16 27 -33 27 -38 0 -5 6 -9 13 -9 6 0 29 -16
49 -35 20 -19 41 -35 46 -35 6 0 12 -3 14 -8 4 -9 127 -65 188 -85 125 -42
201 -51 410 -49 113 1 234 4 270 7 220 19 219 19 170 26 -76 10 260 10 469 -1
187 -10 346 -33 336 -50 -6 -10 69 -22 89 -14 9 3 16 1 16 -6 0 -6 8 -10 18
-9 9 1 25 -1 35 -4 9 -4 25 -10 35 -14 9 -3 20 -6 24 -5 15 3 261 -55 438
-104 111 -31 305 -97 308 -106 2 -4 7 -6 12 -3 10 6 413 -134 421 -147 3 -5 9
-9 13 -9 3 1 7 1 9 0 1 0 10 -2 19 -4 9 -2 121 -39 250 -83 128 -45 252 -86
276 -93 23 -7 42 -16 42 -21 0 -5 4 -7 8 -4 5 3 46 -6 93 -20 252 -74 537
-132 689 -142 349 -21 571 16 788 129 39 21 72 35 72 31 0 -4 4 -2 8 4 4 6 34
33 67 59 73 57 96 81 163 164 28 35 48 69 45 74 -3 6 -2 8 3 5 8 -5 28 9 31
22 1 3 19 43 41 90 45 96 95 248 88 266 -2 6 0 16 5 21 8 8 24 144 24 213 0
128 -32 290 -79 405 -28 69 -75 157 -89 166 -5 4 -6 12 -2 19 4 7 -1 13 -14
17 -12 3 -21 11 -21 19 0 7 -48 62 -107 122 -108 108 -255 217 -281 207 -7 -2
-10 0 -7 5 10 16 -196 107 -215 95 -5 -3 -10 -1 -12 5 -3 10 -135 45 -208 55
-87 11 -259 18 -277 10 -10 -5 -26 -7 -35 -6 -31 4 -20 -8 22 -25 22 -9 40
-20 40 -26 0 -5 4 -7 9 -4 11 7 102 -39 96 -48 -3 -3 -2 -4 1 -1 10 7 62 -24
131 -79 66 -52 109 -101 138 -155 23 -46 55 -138 48 -144 -2 -3 0 -14 6 -25 6
-11 7 -22 4 -26 -4 -4 -8 -12 -9 -19 -5 -35 -28 -106 -44 -138 -27 -53 -99
-139 -113 -136 -6 1 -11 -3 -10 -9 2 -14 -122 -81 -189 -100 -106 -32 -295
-31 -433 1 -49 11 -220 67 -225 74 -3 3 -14 8 -25 9 -66 12 -580 296 -612 339
-7 9 -13 14 -13 10 0 -4 -61 33 -135 83 -74 50 -135 96 -135 102 0 6 -3 8 -6
5 -8 -8 -244 152 -244 166 0 6 -3 8 -6 4 -8 -7 -214 133 -214 145 0 5 -4 6
-10 3 -5 -3 -10 -1 -10 5 0 6 -5 8 -10 5 -6 -3 -13 1 -16 9 -3 9 -12 16 -20
16 -7 0 -17 7 -22 16 -5 9 -11 14 -13 12 -7 -5 -209 124 -209 134 0 5 -5 6
-10 3 -6 -3 -13 1 -16 9 -3 9 -10 13 -15 10 -5 -3 -9 0 -9 5 0 6 -5 11 -11 11
-15 0 -293 160 -297 171 -2 5 -8 7 -13 3 -5 -3 -9 0 -9 7 0 7 -3 10 -6 6 -6
-5 -257 113 -280 132 -7 6 -15 7 -18 4 -3 -4 -6 -1 -6 6 0 7 -4 9 -10 6 -5 -3
-10 -1 -10 6 0 8 -4 8 -15 -1 -8 -7 -15 -8 -15 -3 0 6 -26 20 -57 33 -103 40
-253 89 -253 82 0 -3 -5 -1 -12 6 -7 7 -19 12 -27 12 -9 0 -27 6 -41 13 -14 7
-40 12 -57 12 -18 0 -33 3 -33 6 0 10 -209 52 -225 45 -8 -3 -15 -2 -15 3 0
12 -168 28 -277 27 -51 -1 -93 2 -93 7 0 4 -4 7 -10 7 -5 0 -10 -3 -10 -7z"/>
<path d="M2182 7244 c-11 -8 -27 -27 -35 -43 -14 -28 -13 -33 17 -93 18 -35
38 -63 45 -63 6 0 15 -5 19 -10 4 -6 21 -17 37 -25 17 -8 33 -19 37 -25 4 -5
8 -7 8 -3 0 4 10 4 23 -1 35 -13 131 -22 145 -13 22 15 -35 126 -96 188 -19
19 -37 34 -41 34 -4 0 -17 9 -29 21 -13 11 -35 23 -49 25 -14 3 -34 9 -43 14
-11 6 -24 4 -38 -6z"/>
<path d="M3141 5253 c0 -82 -5 -177 -11 -211 -8 -39 -10 -91 -6 -140 19 -211
17 -202 40 -203 11 -1 31 -3 44 -4 12 -1 22 1 22 5 0 8 90 36 103 32 4 -1 7 3
7 9 0 6 7 9 15 6 8 -4 17 -2 19 2 5 7 49 21 161 50 33 9 41 15 43 36 1 14 6
35 12 45 14 27 13 399 -2 454 l-11 43 -141 7 c-78 3 -176 9 -219 13 l-78 6 2
-150z"/>
<path d="M4800 5281 c-37 -38 -86 -128 -76 -139 9 -9 81 16 109 38 29 23 63
101 54 125 -11 27 -49 16 -87 -24z"/>
<path d="M4224 5278 c-17 -18 -48 -55 -69 -83 l-38 -50 6 -132 c5 -100 4 -133
-6 -136 -6 -3 24 -6 68 -6 l80 -1 -3 147 c-1 82 -3 181 -5 221 l-2 73 -31 -33z"/>
<path d="M3877 5192 c-66 -115 -70 -125 -76 -240 l-6 -102 45 1 c42 1 117 15
95 18 -7 1 -8 57 -3 163 3 89 3 180 -1 202 l-7 41 -47 -83z"/>
<path d="M5306 5138 c-42 -41 -58 -66 -70 -107 -28 -94 -17 -211 20 -225 29
-11 192 195 215 272 12 42 12 43 -21 77 -49 51 -78 47 -144 -17z"/>
<path d="M6384 4902 c-60 -44 -97 -120 -102 -212 -5 -80 14 -150 40 -150 38 0
189 214 203 287 6 34 4 40 -29 70 -44 40 -62 41 -112 5z"/>
<path d="M4499 4890 c-12 -16 -26 -27 -31 -24 -4 3 -8 0 -8 -5 0 -6 6 -11 13
-12 70 -4 119 -5 105 -2 -9 2 -24 20 -33 39 -9 19 -18 34 -20 34 -2 0 -14 -13
-26 -30z"/>
<path d="M4976 4840 c-29 -23 -55 -36 -65 -33 -11 4 -13 3 -6 -4 9 -10 84 -28
150 -37 28 -4 28 -4 8 6 -19 9 -23 19 -23 60 0 26 -3 48 -7 47 -5 0 -30 -18
-57 -39z"/>
<path d="M7525 4780 c-33 -16 -56 -30 -51 -30 5 0 -2 -10 -16 -23 -35 -33 -49
-83 -50 -178 -1 -83 11 -111 38 -86 6 7 32 28 58 47 25 19 45 40 46 47 0 7 7
16 16 21 9 5 16 12 15 15 0 4 7 24 16 44 16 38 33 159 24 168 -10 11 -40 3
-96 -25z"/>
<path d="M5674 4691 l-60 -60 42 -10 c53 -14 67 -14 59 -1 -3 5 1 36 8 70 8
33 14 60 13 60 0 0 -28 -27 -62 -59z"/>
<path d="M5360 4723 c0 -7 -7 -13 -17 -13 -22 0 -8 -13 17 -15 22 -2 24 3 10
25 -6 10 -10 11 -10 3z"/>
<path d="M6045 4616 c-27 -27 -63 -54 -79 -61 -24 -10 -25 -13 -10 -17 11 -3
22 -6 26 -7 4 -2 29 -8 55 -15 27 -7 59 -17 73 -21 23 -7 24 -6 10 10 -8 9
-17 48 -20 89 l-5 71 -50 -49z"/>
<path d="M6796 4500 c-47 -62 -133 -140 -155 -141 -9 0 -2 -5 14 -10 44 -13
203 -23 187 -11 -11 7 -13 34 -10 111 1 55 3 101 3 101 -1 0 -18 -23 -39 -50z"/>
<path d="M6416 4451 c-11 -11 -29 -21 -40 -22 -21 0 -21 0 -1 -8 30 -13 92
-23 78 -14 -6 4 -13 21 -15 37 l-3 28 -19 -21z"/>
</g>
</svg>
