<?xml version="1.0" standalone="no"?>
<!DOCTYPE svg PUBLIC "-//W3C//DTD SVG 20010904//EN"
 "http://www.w3.org/TR/2001/REC-SVG-20010904/DTD/svg10.dtd">
<svg version="1.0" xmlns="http://www.w3.org/2000/svg"
 width="908.000000pt" height="908.000000pt" viewBox="0 0 908.000000 908.000000"
 preserveAspectRatio="xMidYMid meet">
<metadata>
Created by potrace 1.14, written by Peter Selinger 2001-2017
</metadata>
<g transform="translate(0.000000,908.000000) scale(0.100000,-0.100000)"
fill="#000000" stroke="none">
<path d="M2647 9074 c-1 -1 -47 -5 -102 -8 -55 -3 -111 -8 -125 -10 -14 -2
-47 -8 -75 -12 -27 -4 -54 -8 -60 -10 -5 -1 -26 -5 -45 -8 -298 -53 -623 -203
-875 -404 -138 -110 -346 -324 -389 -401 -5 -9 -12 -18 -15 -21 -3 -3 -20 -25
-36 -50 -16 -25 -32 -47 -35 -50 -3 -3 -27 -41 -53 -85 -96 -167 -191 -393
-232 -555 -4 -17 -16 -68 -20 -87 -3 -13 -7 -31 -9 -40 -6 -29 -19 -107 -22
-128 -25 -225 -21 -385 12 -580 4 -22 8 -49 10 -60 1 -11 3 -21 4 -22 2 -2 4
-7 5 -13 1 -5 3 -11 4 -12 2 -2 4 -14 7 -28 2 -14 12 -47 21 -75 9 -27 15 -51
14 -53 -1 -1 6 -16 14 -32 8 -16 16 -33 16 -37 6 -45 157 -337 188 -363 3 -3
13 -17 21 -31 18 -31 45 -67 120 -158 128 -154 314 -315 497 -429 88 -56 296
-158 378 -186 28 -10 57 -20 65 -23 8 -3 20 -7 25 -8 6 -2 35 -10 65 -20 30
-9 69 -19 85 -22 17 -3 35 -9 40 -13 9 -7 70 -21 102 -23 23 -1 23 -90 -1
-1227 -2 -80 1 -188 6 -240 5 -52 11 -261 13 -465 4 -342 8 -466 20 -570 3
-22 7 -62 9 -90 3 -27 6 -50 6 -50 2 0 7 -25 15 -80 4 -27 9 -61 11 -75 2 -14
5 -36 7 -50 1 -14 5 -27 8 -30 11 -10 20 -62 9 -55 -15 9 -13 0 11 -41 11 -21
22 -58 23 -83 1 -25 8 -59 15 -75 6 -16 11 -50 10 -75 -1 -27 5 -59 14 -78 10
-18 17 -39 17 -48 0 -8 5 -15 11 -15 5 0 7 -4 4 -10 -3 -5 -2 -10 3 -10 8 0
22 -35 24 -60 0 -3 13 -23 27 -45 26 -38 73 -144 77 -173 2 -8 10 -22 18 -31
9 -10 16 -22 16 -28 0 -16 33 -73 43 -73 4 0 7 -5 7 -10 0 -19 44 -105 62
-121 10 -9 18 -19 18 -22 0 -6 83 -97 163 -178 26 -27 45 -49 43 -49 -2 0 10
-15 27 -34 18 -18 48 -53 67 -76 19 -24 45 -53 57 -66 12 -12 19 -25 15 -30
-4 -4 -2 -4 4 -1 12 7 32 -10 33 -28 1 -5 4 -10 9 -10 15 -1 51 -39 45 -48 -3
-6 -2 -7 3 -4 6 3 28 -11 50 -31 21 -19 58 -50 81 -68 23 -17 39 -35 35 -39
-4 -4 -2 -5 3 -3 6 1 55 -27 110 -63 88 -58 140 -86 317 -175 24 -12 46 -20
50 -17 5 2 8 -1 8 -7 0 -6 5 -8 10 -5 6 3 10 2 10 -3 0 -5 6 -9 13 -9 10 0
111 -33 157 -50 8 -4 19 -5 24 -4 4 1 14 -4 22 -10 8 -6 14 -9 14 -6 0 3 32
-3 70 -13 39 -10 70 -16 70 -14 0 2 11 0 23 -5 43 -17 230 -34 372 -34 183 -1
266 10 537 68 9 2 26 9 37 15 12 6 21 8 21 5 0 -3 16 1 35 9 19 8 35 12 35 9
0 -3 7 1 17 8 9 8 17 13 17 11 1 -2 14 1 29 7 16 6 30 11 32 11 3 0 34 14 70
30 36 17 70 30 75 30 6 0 10 5 10 10 0 6 6 10 13 10 11 0 196 101 222 122 69
54 145 107 145 101 0 -4 7 3 16 15 8 12 19 22 24 22 5 0 25 16 44 35 20 19 40
35 46 35 5 0 10 7 10 17 0 9 3 14 6 11 3 -4 29 19 57 49 29 31 62 67 75 80 12
13 22 28 22 33 0 4 3 10 8 12 4 2 25 26 47 53 22 28 43 52 46 55 3 3 14 21 25
40 10 19 37 55 60 80 55 59 116 201 93 215 -5 4 -9 1 -9 -6 0 -8 -3 -9 -13 0
-8 6 -16 9 -18 6 -3 -2 -29 -7 -58 -10 -44 -4 -100 -26 -193 -76 -10 -5 -24
-9 -31 -9 -40 0 -139 -74 -249 -185 -65 -66 -123 -120 -127 -120 -5 0 -21 -14
-35 -30 -14 -17 -26 -27 -26 -23 0 4 -12 -4 -26 -17 -15 -14 -33 -25 -39 -25
-7 0 -16 -7 -19 -16 -3 -8 -10 -12 -16 -9 -5 3 -10 2 -10 -2 0 -11 -111 -79
-122 -75 -4 1 -8 -3 -8 -9 0 -5 -4 -7 -10 -4 -5 3 -10 2 -10 -3 0 -9 -80 -46
-89 -42 -2 1 -7 -2 -10 -7 -6 -9 -111 -53 -133 -57 -7 -1 -17 -4 -23 -8 -31
-19 -262 -74 -349 -83 -21 -3 -57 -7 -80 -11 -83 -13 -351 -5 -455 13 -20 3
-44 6 -53 7 -10 0 -18 4 -18 8 0 4 -7 5 -15 2 -8 -3 -20 -2 -27 2 -7 5 -22 9
-33 10 -78 8 -436 139 -456 167 -3 5 -10 9 -15 9 -17 -1 -144 70 -144 80 0 5
-4 6 -10 3 -6 -3 -10 -1 -10 4 0 6 -7 11 -15 11 -8 0 -24 9 -34 19 -11 11 -21
17 -24 15 -2 -2 -15 6 -28 18 -14 13 -29 25 -34 27 -21 8 -45 28 -40 34 3 4 2
5 -2 2 -12 -9 -109 71 -218 181 -100 101 -117 123 -144 182 -14 28 -30 52 -37
52 -6 0 -19 16 -29 36 -9 19 -29 54 -44 77 -15 23 -34 58 -41 77 -8 19 -24 49
-36 65 -12 17 -30 50 -40 75 -9 25 -23 52 -29 60 -21 26 -42 73 -49 112 -4 21
-6 39 -6 40 1 2 -5 21 -14 43 -17 43 -84 283 -91 325 -2 14 -11 53 -19 87 -17
69 -27 116 -31 153 -1 14 -5 32 -8 40 -3 8 -8 34 -11 56 -4 32 -2 43 9 48 8 3
17 1 21 -5 4 -7 10 -6 18 0 7 6 16 8 20 4 4 -4 33 -8 64 -9 120 -4 317 -16
320 -19 2 -2 6 -21 9 -42 9 -70 60 -201 106 -275 135 -217 367 -346 621 -346
149 0 277 38 399 118 194 127 313 323 333 550 4 37 12 70 20 76 23 19 296 18
360 -1 48 -14 54 -19 55 -43 4 -142 75 -325 168 -435 208 -244 536 -330 831
-216 175 67 327 210 400 374 12 28 25 57 30 66 11 22 38 154 39 195 1 20 5 21
84 18 109 -5 221 -19 241 -32 8 -5 82 -6 89 -2 1 1 18 3 37 5 20 1 55 12 79
24 37 19 42 26 35 44 -4 12 -9 76 -11 142 -2 66 -6 174 -10 240 -8 147 -8 316
1 410 8 90 33 220 46 245 6 11 9 20 6 20 -7 0 49 150 79 211 14 29 25 54 25
55 0 2 -14 -1 -30 -6 -17 -5 -30 -7 -30 -5 0 2 -19 -3 -42 -11 -40 -14 -79
-23 -125 -29 -12 -2 -26 -6 -31 -9 -32 -20 -365 -25 -447 -7 -27 6 -59 13 -70
16 -11 2 -38 6 -60 9 -82 10 -126 19 -131 27 -3 5 -9 7 -13 4 -5 -2 -39 5 -77
16 -38 11 -76 22 -84 23 -8 2 -35 9 -60 16 -25 7 -46 12 -47 11 -2 0 -18 6
-38 15 -19 8 -35 12 -35 9 0 -2 -12 0 -27 6 -16 6 -35 12 -43 14 -8 2 -80 22
-160 45 -80 22 -172 48 -205 56 -33 9 -67 18 -75 21 -8 3 -21 7 -29 9 -8 1
-26 6 -40 10 -14 4 -29 7 -33 6 -5 -1 -8 1 -8 6 0 4 -10 8 -22 9 -20 1 -253
60 -253 63 0 1 -11 3 -25 5 -14 1 -36 6 -50 9 -14 4 -36 9 -50 12 -14 3 -41 9
-60 14 -19 5 -51 11 -70 14 -19 4 -66 13 -105 21 -38 8 -88 18 -110 21 -47 6
-80 12 -80 14 0 1 -16 3 -35 5 -19 2 -51 6 -70 8 -98 14 -129 18 -170 22 -25
2 -45 4 -45 5 0 0 -45 3 -100 6 -146 7 -318 7 -415 0 -170 -14 -197 -17 -297
-37 -29 -6 -65 -12 -80 -14 -16 -2 -28 -4 -28 -5 0 -2 -37 -10 -60 -13 -11 -1
-22 -5 -26 -9 -3 -4 -18 -9 -35 -12 -16 -2 -42 -8 -57 -15 -15 -6 -31 -10 -35
-9 -4 1 -20 -4 -37 -11 -16 -7 -34 -14 -40 -15 -5 -2 -23 -8 -40 -15 -25 -10
-31 -10 -42 5 -7 9 -10 21 -7 25 3 5 1 9 -3 9 -26 0 -47 121 -45 245 1 50 2
146 1 215 -2 238 -1 256 16 270 6 5 42 12 81 15 38 3 94 13 124 21 30 9 62 17
70 19 8 2 35 8 60 15 25 7 54 14 65 16 66 13 194 62 243 94 54 35 105 90 82
90 -5 0 -10 6 -10 14 0 14 -28 15 -50 1 -18 -11 -166 -46 -215 -50 -27 -2 -50
-5 -50 -6 0 0 -16 -2 -35 -3 -19 -1 -41 -5 -49 -10 -10 -6 -12 -5 -7 2 4 7 2
12 -3 12 -6 0 -11 -3 -11 -7 0 -8 -349 -7 -356 0 -2 2 -6 21 -9 43 -4 21 -8
47 -11 57 -3 10 -7 30 -9 45 -2 15 -9 52 -15 82 -6 30 -13 71 -16 90 -4 19 -7
40 -9 45 -4 19 -24 126 -29 160 -2 11 -8 47 -14 80 -6 33 -14 76 -17 95 -3 19
-8 49 -12 65 -3 17 -7 39 -9 50 -2 11 -8 49 -14 84 -11 64 -9 73 13 77 7 2 21
5 32 8 103 25 158 36 200 42 28 3 58 8 69 10 59 11 231 20 431 23 68 1 323 -6
465 -13 103 -5 135 -9 220 -26 30 -6 66 -13 80 -16 82 -15 138 -27 160 -35 14
-5 36 -10 50 -13 14 -2 63 -17 110 -32 47 -15 91 -29 98 -30 7 -1 61 -21 121
-43 60 -23 111 -41 115 -41 3 0 29 -11 58 -25 28 -14 55 -25 60 -25 8 0 217
-91 403 -175 33 -15 141 -63 240 -107 99 -43 194 -85 210 -93 39 -17 207 -86
220 -89 6 -2 24 -8 40 -15 168 -69 527 -177 655 -197 14 -2 39 -6 55 -8 17 -3
46 -7 65 -10 99 -16 172 -20 350 -20 192 0 261 5 370 24 156 28 274 64 398
121 35 16 65 29 68 29 10 0 169 103 226 147 85 65 175 155 236 238 29 39 57
75 62 82 36 45 150 293 165 358 2 11 11 45 20 75 8 30 17 73 20 95 3 22 8 51
10 65 7 32 8 286 1 325 -2 17 -8 48 -11 70 -14 84 -58 229 -77 253 -6 6 -8 12
-4 12 12 0 -72 156 -132 246 -67 99 -195 237 -287 308 -33 26 -65 50 -70 55
-26 20 -185 110 -185 105 0 -4 -6 -1 -13 5 -27 22 -217 86 -287 97 -14 2 -58
10 -98 17 -50 10 -130 13 -260 11 -209 -3 -252 -7 -366 -30 -11 -2 -36 -7 -55
-10 -53 -9 -71 -13 -93 -20 -11 -3 -30 -7 -41 -9 -38 -5 -276 -74 -365 -105
-105 -37 -146 -74 -139 -126 5 -38 23 -64 42 -64 7 0 38 11 69 25 31 14 57 24
59 24 1 -1 22 4 46 11 71 19 120 24 236 24 106 0 133 -3 220 -23 261 -59 448
-240 412 -397 -23 -97 -128 -190 -235 -208 -15 -2 -27 -5 -27 -6 0 -1 -15 -2
-33 -3 -17 -1 -32 0 -32 3 0 3 -17 5 -37 4 -21 0 -67 8 -103 18 -36 10 -75 21
-87 23 -33 8 -208 84 -293 128 -68 36 -260 150 -285 169 -5 5 -44 32 -85 60
-67 47 -319 237 -346 263 -6 5 -27 23 -47 38 -19 15 -89 71 -154 125 -66 53
-135 108 -154 122 -18 14 -57 44 -86 68 -29 23 -57 42 -62 42 -5 0 -11 4 -13
8 -1 5 -52 44 -113 88 -60 43 -111 82 -113 87 -2 4 -8 7 -13 7 -5 0 -55 31
-111 68 -91 60 -161 103 -313 192 -82 48 -303 158 -400 199 -55 23 -109 46
-120 51 -21 10 -136 53 -145 55 -3 1 -50 16 -105 34 -91 30 -223 65 -285 77
-14 2 -45 9 -70 14 -25 5 -58 12 -75 14 -16 2 -30 5 -30 6 0 1 -24 4 -120 15
-106 11 -401 25 -408 19z m433 -418 c13 -3 40 -6 60 -8 19 -1 39 -4 45 -7 5
-2 21 -6 35 -7 51 -6 95 -13 110 -18 8 -3 26 -8 40 -10 47 -9 71 -15 148 -36
42 -12 82 -23 87 -24 6 -2 17 -6 25 -9 8 -3 49 -17 90 -30 262 -88 589 -250
918 -455 21 -12 47 -28 60 -34 12 -6 22 -15 22 -20 0 -4 5 -8 11 -8 14 0 472
-305 507 -337 7 -7 17 -13 21 -13 4 0 19 -9 32 -20 30 -25 41 -32 62 -45 9 -5
94 -62 189 -126 435 -293 676 -425 928 -506 41 -13 86 -26 100 -29 132 -24
187 -30 260 -28 95 2 157 11 205 28 11 5 34 13 50 19 52 18 133 77 181 130 69
76 106 165 108 252 1 90 -5 119 -39 185 -26 52 -163 200 -184 200 -5 0 -16 6
-23 13 -26 23 -66 45 -228 120 l-35 16 50 1 c179 7 290 -2 400 -32 22 -6 47
-12 55 -13 8 -2 16 -4 18 -5 1 -2 5 -3 10 -4 60 -14 238 -96 299 -137 23 -16
46 -29 51 -29 6 0 12 -3 14 -7 2 -5 26 -26 53 -47 64 -51 180 -170 214 -220
14 -22 34 -51 43 -65 29 -44 89 -173 110 -236 30 -93 42 -179 42 -320 1 -147
-5 -200 -34 -300 -11 -38 -22 -78 -25 -87 -17 -72 -172 -338 -196 -338 -5 0
-9 -6 -10 -12 -1 -22 -145 -141 -230 -190 -120 -70 -294 -130 -399 -139 -19
-2 -39 -6 -45 -10 -12 -8 -422 -4 -475 5 -19 3 -48 8 -65 11 -16 2 -55 9 -85
15 -30 6 -68 13 -85 16 -38 6 -335 82 -355 91 -8 3 -22 7 -30 9 -53 11 -492
157 -522 174 -10 6 -26 10 -36 10 -10 0 -22 4 -27 8 -6 5 -30 15 -55 22 -25 8
-69 24 -97 37 -29 12 -53 21 -53 18 0 -2 -20 4 -45 15 -25 11 -46 19 -48 19
-1 0 -15 4 -30 10 -16 6 -33 11 -38 11 -5 0 -17 4 -27 10 -35 19 -471 158
-552 175 -8 2 -15 4 -15 5 0 1 -7 3 -15 5 -8 1 -35 8 -60 15 -25 7 -56 14 -69
16 -12 3 -53 12 -90 20 -36 9 -75 17 -86 19 -11 2 -29 5 -40 8 -11 3 -40 8
-65 12 -95 14 -106 16 -145 26 -22 5 -49 12 -60 14 -19 5 -72 9 -285 21 -155
9 -507 8 -630 -2 -217 -17 -477 -10 -543 15 -14 5 -27 7 -30 4 -3 -3 -12 -1
-19 3 -7 5 -19 9 -26 10 -8 2 -21 6 -30 10 -9 4 -26 9 -37 11 -10 2 -30 10
-42 18 -13 9 -23 12 -23 8 0 -5 -4 -3 -8 2 -4 6 -29 21 -55 34 -27 14 -62 37
-78 52 -16 15 -29 25 -29 23 0 -3 -11 6 -25 20 -14 14 -25 28 -25 31 0 3 -15
19 -32 36 -18 17 -26 28 -18 24 10 -4 9 -1 -2 8 -10 8 -18 19 -18 24 0 5 -9
18 -20 28 -11 10 -20 24 -20 31 0 7 -5 16 -12 20 -7 5 -9 2 -4 -7 4 -8 -4 -1
-18 14 -14 15 -26 25 -26 21 0 -4 -8 0 -17 8 -27 23 -131 46 -193 42 -51 -4
-92 -10 -97 -14 -2 -2 -6 -3 -10 -4 -5 -1 -18 -7 -30 -14 -13 -7 -23 -10 -23
-7 0 4 -19 -12 -42 -34 -24 -22 -46 -41 -50 -41 -5 0 -8 -7 -8 -15 0 -8 -5
-15 -11 -15 -5 0 -7 -4 -4 -10 3 -5 1 -10 -6 -10 -7 0 -10 -3 -6 -6 3 -4 0
-18 -7 -33 -20 -40 -10 -187 15 -217 5 -6 6 -14 2 -17 -3 -4 -1 -7 5 -7 7 0
12 -7 12 -15 0 -8 9 -23 20 -32 11 -10 20 -23 20 -30 0 -7 4 -13 9 -13 6 0 23
-12 38 -26 15 -15 52 -38 82 -52 54 -25 72 -27 214 -22 26 1 54 -4 62 -10 8
-7 15 -9 15 -4 0 5 7 0 15 -10 8 -11 15 -16 15 -12 0 4 20 -13 45 -38 25 -26
45 -50 45 -55 0 -4 9 -18 20 -31 11 -12 17 -27 14 -31 -3 -5 -1 -9 4 -9 10 0
55 -131 67 -195 2 -11 8 -41 14 -68 6 -26 14 -64 17 -85 3 -20 7 -44 9 -52 2
-8 7 -42 10 -75 4 -33 8 -71 10 -85 9 -56 26 -290 20 -290 -2 0 -14 4 -27 9
-13 5 -26 9 -30 10 -46 10 -320 146 -326 162 -2 5 -8 9 -13 9 -11 0 -117 70
-140 92 -8 7 -32 26 -54 43 -75 56 -301 292 -314 328 -2 7 -10 17 -17 24 -19
20 -104 158 -104 171 0 5 -4 12 -8 14 -17 7 -122 254 -136 321 -3 12 -12 47
-20 77 -8 30 -18 73 -21 95 -3 22 -8 60 -12 85 -13 96 -5 414 12 463 2 7 6 23
9 37 16 87 60 240 95 328 47 119 186 372 220 402 3 3 17 21 31 40 61 88 237
265 335 338 6 4 27 19 47 35 20 15 39 27 42 27 3 0 22 12 43 26 123 84 399
190 568 218 17 3 46 8 65 11 19 4 53 8 74 10 21 3 41 6 43 9 6 6 434 -1 463
-8z m-1305 -1916 c4 -6 10 -8 15 -5 5 3 16 -2 24 -11 9 -8 16 -12 16 -7 0 4 7
-1 15 -11 8 -11 15 -16 15 -11 0 5 19 -12 43 -38 60 -65 67 -74 60 -81 -4 -3
-1 -6 5 -6 9 0 25 -31 27 -52 0 -3 3 -10 8 -14 4 -4 7 -12 7 -17 0 -13 -129 0
-147 14 -7 7 -13 9 -13 5 0 -8 -67 30 -108 61 -18 13 -30 29 -27 34 4 5 2 9
-4 9 -25 0 -36 96 -13 123 16 18 67 23 77 7z m2574 -2754 c47 -4 97 -8 111
-11 14 -2 48 -6 75 -9 48 -5 88 -10 165 -22 19 -3 51 -7 70 -10 19 -2 46 -6
60 -9 14 -3 36 -7 50 -10 14 -2 39 -7 55 -10 17 -3 46 -8 65 -11 19 -3 42 -7
50 -9 8 -3 33 -7 55 -11 22 -3 43 -8 46 -10 4 -2 24 -6 45 -9 36 -5 84 -15
109 -21 6 -2 24 -6 40 -9 17 -3 53 -10 81 -16 28 -5 64 -12 80 -15 16 -3 45
-9 64 -14 19 -5 51 -11 70 -14 19 -3 46 -8 60 -11 14 -3 39 -7 55 -10 17 -3
41 -8 55 -10 58 -12 76 -15 100 -19 39 -7 103 -17 125 -20 11 -2 45 -7 75 -11
30 -4 64 -9 75 -11 11 -2 49 -6 85 -9 36 -3 76 -7 89 -10 13 -2 84 -7 159 -10
75 -4 138 -7 139 -9 20 -20 23 -800 4 -853 -2 -4 -300 3 -304 7 -2 3 -12 27
-23 54 -25 68 -101 181 -160 240 -128 127 -290 201 -464 212 -304 21 -585
-141 -715 -411 -20 -41 -39 -75 -43 -75 -4 1 -32 6 -62 13 -30 7 -90 13 -132
12 -43 0 -78 4 -78 8 0 5 -5 5 -12 1 -6 -4 -48 -9 -92 -11 -45 -1 -92 -4 -105
-5 -20 -3 -29 8 -63 71 -228 436 -802 535 -1157 199 -89 -84 -174 -219 -197
-313 -9 -38 -20 -45 -64 -39 -35 4 -132 10 -344 19 -61 3 -111 7 -113 9 -16
15 -23 687 -10 816 3 25 6 53 6 63 1 21 75 96 97 98 23 2 28 4 54 19 14 7 26
12 28 11 1 -1 41 10 89 24 48 15 91 28 97 29 6 2 31 8 56 15 25 8 52 15 60 16
8 2 17 4 20 6 3 1 10 3 15 4 6 1 24 4 40 8 52 12 79 18 125 28 44 9 62 13 130
24 19 3 49 8 65 11 31 6 43 7 135 19 90 11 119 14 240 21 63 3 116 7 117 8 5
5 368 -2 452 -8z m-459 -1009 c146 -55 247 -164 286 -310 7 -27 12 -78 10
-115 -12 -341 -388 -534 -673 -345 -77 51 -150 149 -173 231 -65 244 69 481
310 548 54 14 191 10 240 -9z m1904 -2 c147 -51 254 -174 286 -332 53 -259
-157 -511 -425 -510 -320 0 -528 337 -387 625 51 105 163 195 282 227 59 17
182 11 244 -10z"/>
</g>
</svg>
